<svg xmlns="http://www.w3.org/2000/svg" viewBox="0 0 16 16">
	<title>GitHub icon</title>
	<path fill="currentColor" d="M8 0a8 8 0 00-2.53 15.6c.4.08.55-.17.55-.38v-1.33c-2.26.49-2.73-1.09-2.73-1.09A2.15 2.15 0 002.4 11.9c-.73-.5.06-.49.06-.49a1.7 1.7 0 011.24.84 1.7 1.7 0 002.32.67c.05-.28.18-.53.36-.74-1.8-.2-3.68-.9-3.68-4a3.1 3.1 0 01.82-2.15 2.85 2.85 0 01.08-2.12s.68-.22 2.24.82a7.7 7.7 0 014.08 0c1.56-1.04 2.24-.82 2.24-.82.28.67.3 1.43.08 2.12a3.1 3.1 0 01.82 2.15c0 3.1-1.89 3.8-3.7 4 .29.25.44.62.44 1v1.48c0 .21.15.46.55.38A8 8 0 008 0z"/>
</svg>
