<svg xmlns="http://www.w3.org/2000/svg" viewBox="0 0 448 512">
  <path d="M380.9 97.1C339 55.1 283.2 32 224.6 32 102.2 32 0 134.2 0 256c0 45.7 12 90.3 34.7 129.6L0 480l97.3-31.7C134.9 469.6 179 480 224.6 480c122.3 0 224.6-102.2 224.6-224.6 0-58.6-23.1-114.4-65.1-158.3zM224.6 438.2c-39.7 0-78.6-10.6-112.7-30.7l-8.1-4.8-57.7 18.8 18.8-56.3-5.3-8.2c-21.6-33.4-33-71.9-33-111.9 0-110.1 89.6-199.7 199.7-199.7 53.3 0 103.4 20.7 141.1 58.4 37.7 37.7 58.4 87.8 58.4 141.1 0 110.1-89.6 199.7-199.7 199.7zm101.6-149.1c-5.5-2.8-32.5-16-37.6-17.8-5.1-1.9-8.8-2.8-12.5 2.8-3.7 5.5-14.3 17.8-17.5 21.5-3.2 3.7-6.5 4.2-12 1.4-5.5-2.8-23.3-8.6-44.4-27.4-16.4-14.6-27.4-32.6-30.6-38.1-3.2-5.5-.3-8.5 2.4-11.2 2.5-2.5 5.5-6.5 8.3-9.7 2.8-3.2 3.7-5.5 5.5-9.2 1.9-3.7.9-7-0.5-9.7-1.4-2.8-12.5-30.1-17.1-41.2-4.5-10.8-9.1-9.3-12.5-9.5-3.2-.2-7-.2-10.8-.2-3.7 0-9.7 1.4-14.7 6.9-5.1 5.5-19.4 19-19.4 46.3 0 27.3 19.9 53.7 22.6 57.4 2.8 3.7 39.1 59.7 94.7 83.7 35 15.1 48.7 16.4 66.2 13.8 10.6-1.6 32.5-13.3 37.1-26.1 4.6-12.7 4.6-23.6 3.2-26.1-1.3-2.5-5-3.9-10.5-6.6z" fill="currentColor"/>
</svg>
